<?xml version="1.0" encoding="UTF-8" standalone="no"?>
<!-- Created with Inkscape (http://www.inkscape.org/) -->

<svg
   xmlns:dc="http://purl.org/dc/elements/1.1/"
   xmlns:cc="http://creativecommons.org/ns#"
   xmlns:rdf="http://www.w3.org/1999/02/22-rdf-syntax-ns#"
   xmlns:svg="http://www.w3.org/2000/svg"
   xmlns="http://www.w3.org/2000/svg"
   xmlns:sodipodi="http://sodipodi.sourceforge.net/DTD/sodipodi-0.dtd"
   xmlns:inkscape="http://www.inkscape.org/namespaces/inkscape"
   width="512"
   height="512"
   viewBox="0 0 135.46666 135.46667"
   version="1.1"
   id="svg8"
   inkscape:version="0.92.5 (2060ec1f9f, 2020-04-08)"
   sodipodi:docname="logo.svg"
   inkscape:export-filename="/home/awt/code/dci/fbw14/React_Intro/08-Complete-Todo/public/logo64.png"
   inkscape:export-xdpi="12"
   inkscape:export-ydpi="12">
  <defs
     id="defs2">
    <filter
       style="color-interpolation-filters:sRGB;"
       inkscape:label="Drop Shadow"
       id="filter843">
      <feFlood
         flood-opacity="0.498039"
         flood-color="rgb(0,0,0)"
         result="flood"
         id="feFlood833" />
      <feComposite
         in="flood"
         in2="SourceGraphic"
         operator="out"
         result="composite1"
         id="feComposite835" />
      <feGaussianBlur
         in="composite1"
         stdDeviation="3"
         result="blur"
         id="feGaussianBlur837" />
      <feOffset
         dx="6"
         dy="6"
         result="offset"
         id="feOffset839" />
      <feComposite
         in="offset"
         in2="SourceGraphic"
         operator="atop"
         result="composite2"
         id="feComposite841" />
    </filter>
    <filter
       style="color-interpolation-filters:sRGB;"
       inkscape:label="Drop Shadow"
       id="filter859">
      <feFlood
         flood-opacity="0.498039"
         flood-color="rgb(0,0,0)"
         result="flood"
         id="feFlood849" />
      <feComposite
         in="flood"
         in2="SourceGraphic"
         operator="out"
         result="composite1"
         id="feComposite851" />
      <feGaussianBlur
         in="composite1"
         stdDeviation="3"
         result="blur"
         id="feGaussianBlur853" />
      <feOffset
         dx="6"
         dy="6"
         result="offset"
         id="feOffset855" />
      <feComposite
         in="offset"
         in2="SourceGraphic"
         operator="atop"
         result="fbSourceGraphic"
         id="feComposite857" />
      <feColorMatrix
         result="fbSourceGraphicAlpha"
         in="fbSourceGraphic"
         values="0 0 0 -1 0 0 0 0 -1 0 0 0 0 -1 0 0 0 0 1 0"
         id="feColorMatrix897" />
      <feFlood
         id="feFlood899"
         flood-opacity="0.498039"
         flood-color="rgb(0,0,0)"
         result="flood"
         in="fbSourceGraphic" />
      <feComposite
         in2="fbSourceGraphic"
         id="feComposite901"
         in="flood"
         operator="in"
         result="composite1" />
      <feGaussianBlur
         id="feGaussianBlur903"
         in="composite1"
         stdDeviation="3"
         result="blur" />
      <feOffset
         id="feOffset905"
         dx="2"
         dy="2"
         result="offset" />
      <feComposite
         in2="offset"
         id="feComposite907"
         in="fbSourceGraphic"
         operator="over"
         result="composite2" />
    </filter>
    <filter
       style="color-interpolation-filters:sRGB;"
       inkscape:label="Drop Shadow"
       id="filter955"
       x="-0.5"
       y="-0.5"
       width="2"
       height="2">
      <feFlood
         flood-opacity="0.498039"
         flood-color="rgb(0,0,0)"
         result="flood"
         id="feFlood945" />
      <feComposite
         in="flood"
         in2="SourceGraphic"
         operator="in"
         result="composite1"
         id="feComposite947" />
      <feGaussianBlur
         in="composite1"
         stdDeviation="3"
         result="blur"
         id="feGaussianBlur949" />
      <feOffset
         dx="2"
         dy="2"
         result="offset"
         id="feOffset951" />
      <feComposite
         in="SourceGraphic"
         in2="offset"
         operator="over"
         result="composite2"
         id="feComposite953" />
    </filter>
  </defs>
  <sodipodi:namedview
     id="base"
     pagecolor="#ffffff"
     bordercolor="#666666"
     borderopacity="1.0"
     inkscape:pageopacity="0.0"
     inkscape:pageshadow="2"
     inkscape:zoom="0.7"
     inkscape:cx="186.1779"
     inkscape:cy="358.44841"
     inkscape:document-units="mm"
     inkscape:current-layer="layer1"
     showgrid="false"
     units="px"
     inkscape:window-width="1626"
     inkscape:window-height="986"
     inkscape:window-x="54"
     inkscape:window-y="27"
     inkscape:window-maximized="1" />
  <metadata
     id="metadata5">
    <rdf:RDF>
      <cc:Work
         rdf:about="">
        <dc:format>image/svg+xml</dc:format>
        <dc:type
           rdf:resource="http://purl.org/dc/dcmitype/StillImage" />
        <dc:title></dc:title>
      </cc:Work>
    </rdf:RDF>
  </metadata>
  <g
     inkscape:label="Layer 1"
     inkscape:groupmode="layer"
     id="layer1"
     transform="translate(0,-161.53332)">
    <g
       id="g847"
       style="filter:url(#filter859)"
       transform="translate(-4.5926356e-6,-1.2557365e-5)">
      <circle
         transform="rotate(84.132971)"
         r="64.255951"
         cy="-43.942867"
         cx="234.98943"
         id="path815"
         style="opacity:1;fill:#0088aa;fill-opacity:0.9953052;stroke:none;stroke-width:3.3026042;stroke-miterlimit:4;stroke-dasharray:none;stroke-opacity:1" />
      <rect
         y="171.81429"
         x="11.414883"
         height="114.90475"
         width="112.6369"
         id="rect817"
         style="opacity:0.87900002;fill:#0088aa;fill-opacity:0.9953052;stroke:none;stroke-width:1.86500001;stroke-miterlimit:4;stroke-dasharray:none;stroke-opacity:1" />
    </g>
    <circle
       transform="rotate(84.132971,1.038266e-5,-3.1010125e-6)"
       r="61.988094"
       cy="-43.942867"
       cx="234.98943"
       id="circle819"
       style="opacity:1;fill:#004b5e;fill-opacity:0.9953052;stroke:none;stroke-width:3.18604159;stroke-miterlimit:4;stroke-dasharray:none;stroke-opacity:1;filter:url(#filter843)" />
    <path
       style="opacity:1;fill:none;fill-opacity:0.9953052;stroke:#000000;stroke-width:1;stroke-miterlimit:4;stroke-dasharray:none;stroke-opacity:1"
       d="m 67.579082,165.01776 a 64.255951,64.255951 0 0 0 -6.414079,0.3359 64.255951,64.255951 0 0 0 -22.1449,6.46731 H 11.415069 v 26.5436 a 64.255951,64.255951 0 0 0 -7.6010855,37.47678 64.255951,64.255951 0 0 0 7.6010855,24.23573 v 26.6485 h 27.706835 a 64.255951,64.255951 0 0 0 35.179764,6.4673 64.255951,64.255951 0 0 0 22.144903,-6.4673 H 124.0516 v -26.5436 a 64.255951,64.255951 0 0 0 7.60108,-37.47678 64.255951,64.255951 0 0 0 -7.60108,-24.23573 v -26.6485 H 96.344767 a 64.255951,64.255951 0 0 0 -28.765685,-6.80321 z"
       id="circle909"
       inkscape:connector-curvature="0" />
    <g
       id="g943"
       transform="matrix(1.1777141,0,0,1.1777141,-14.339579,-42.276615)"
       style="fill:#ffffff;filter:url(#filter955)">
      <path
         d="m 25.121751,220.24256 q 0,0 0,-0.0899 -0.314596,-1.39321 0.382011,-2.29206 0.696607,-0.89885 1.820166,-0.89885 h 17.235405 q 1.146031,0 1.865109,0.94379 0.719079,0.94379 0.337068,2.24712 v 0.0899 q -0.179769,0.74155 -0.853905,1.25839 -0.696607,0.51684 -1.348272,0.44942 l -5.168374,-0.40448 v 20.40385 q 0,1.46062 -0.988733,2.47183 -0.988732,0.98873 -2.471831,0.98873 h -0.02247 q -1.438156,0 -2.426889,-0.98873 -0.988732,-0.98873 -0.988732,-2.47183 v -20.40385 l -5.168375,0.40448 q -0.76402,0.0674 -1.415685,-0.51683 -0.651665,-0.56178 -0.786493,-1.19098 z"
         style="font-style:normal;font-variant:normal;font-weight:normal;font-stretch:normal;font-size:46.02100372px;line-height:1.25;font-family:Dyuthi;-inkscape-font-specification:Dyuthi;letter-spacing:0px;word-spacing:0px;fill:#ffffff;fill-opacity:1;stroke:none;stroke-width:1.15052509"
         id="path922"
         inkscape:connector-curvature="0" />
      <path
         d="m 53.86161,241.52278 q 1.842638,0 3.325737,-1.68534 1.190973,-1.37074 1.190973,-6.69641 -0.02247,-2.67407 -1.258387,-4.04482 -1.258387,-1.37074 -3.258323,-1.37074 -1.730282,0 -3.01114,1.43816 -1.528041,1.70781 -1.528041,3.9774 0.02247,5.03355 1.528041,6.69641 1.50557,1.66287 3.01114,1.68534 z m 7.662677,-14.49392 q 3.168438,3.14597 3.168438,7.59527 0,4.44929 -3.21338,7.61773 -3.19091,3.14597 -7.011013,3.1235 -0.314596,0.0225 -0.606722,0 -4.314469,0.17977 -7.572792,-3.05608 -3.235852,-3.23586 -3.235852,-7.70762 0.02247,-4.49424 3.145967,-7.61774 3.145967,-3.12349 7.033484,-3.10102 0.292125,-0.0225 0.606722,-0.0225 4.51671,0 7.685148,3.16843 z"
         style="font-style:normal;font-variant:normal;font-weight:normal;font-stretch:normal;font-size:46.02100372px;line-height:1.25;font-family:Dyuthi;-inkscape-font-specification:Dyuthi;letter-spacing:0px;word-spacing:0px;fill:#ffffff;fill-opacity:1;stroke:none;stroke-width:1.15052509"
         id="path924"
         inkscape:connector-curvature="0" />
      <path
         d="m 72.308272,233.11856 q 0,0 0,2.69654 0,2.337 1.213445,3.9774 1.235915,1.6404 3.056082,1.59546 0.988732,0.11235 2.044878,-0.20224 2.134764,-0.74155 2.179706,-3.23586 0,0 0,-7.59526 -0.449424,-1.28086 -2.381946,-1.99994 -1.932523,-0.74154 -3.977401,0.24719 -0.988733,0.44942 -1.572984,1.70781 -0.56178,1.28086 -0.56178,2.8089 z m 3.685276,-8.7413 q 2.539245,0 4.808835,1.30333 v -6.76383 q -0.02247,-1.30333 0.921319,-2.24712 0.94379,-0.94379 2.269591,-0.94379 h 0.08988 q 1.30333,0 2.24712,0.94379 0.94379,0.94379 0.94379,2.24712 v 24.89809 q 0.04494,0.49436 -0.38201,0.89884 -0.404482,0.40448 -0.943791,0.40448 h -3.842574 q -0.584251,0 -0.966261,-0.40448 -0.38201,-0.40448 -0.337068,-0.89884 -2.247119,1.30332 -4.808835,1.30332 -4.089757,0 -6.96607,-3.03361 -2.876313,-3.03361 -2.876313,-7.32561 0,-4.31446 2.876313,-7.34808 2.876313,-3.03361 6.96607,-3.03361 z"
         style="font-style:normal;font-variant:normal;font-weight:normal;font-stretch:normal;font-size:46.02100372px;line-height:1.25;font-family:Dyuthi;-inkscape-font-specification:Dyuthi;letter-spacing:0px;word-spacing:0px;fill:#ffffff;fill-opacity:1;stroke:none;stroke-width:1.15052509"
         id="path926"
         inkscape:connector-curvature="0" />
      <path
         d="m 93.318833,245.11817 q -1.393214,0 -2.381946,-0.96626 -0.966262,-0.98873 -0.966262,-2.38194 v -13.25801 q 0,-1.39321 0.988733,-2.38194 1.011204,-0.98874 2.359475,-0.98874 h 0.04494 q 1.348271,0 2.337004,0.98874 0.988732,0.98873 0.988732,2.38194 v 13.25801 q 0,1.39321 -0.988732,2.38194 -0.988733,0.98874 -2.337004,0.96626 z m 3.101025,-25.30256 q 0,1.46063 -1.033675,2.47183 -1.011204,1.01121 -2.426889,1.01121 -1.438156,0 -2.426889,-1.01121 -0.988732,-1.0112 -1.011203,-2.47183 0,-1.46063 1.011203,-2.44936 0.988733,-1.0112 2.426889,-0.98873 1.393214,0 2.426889,0.96626 1.033675,0.98873 1.033675,2.47183 z"
         style="font-style:normal;font-variant:normal;font-weight:normal;font-stretch:normal;font-size:46.02100372px;line-height:1.25;font-family:Dyuthi;-inkscape-font-specification:Dyuthi;letter-spacing:0px;word-spacing:0px;fill:#ffffff;fill-opacity:1;stroke:none;stroke-width:1.15052509"
         id="path928"
         inkscape:connector-curvature="0" />
      <path
         d="m 99.565826,241.76997 q 0.20224,-0.85391 1.101084,-1.39322 0.80897,-0.49436 2.17971,-0.0449 1.37074,0.44942 2.78643,0.40448 2.69654,-0.0449 2.69654,-1.68534 0,-0.74155 -0.58425,-1.21344 -0.58425,-0.4719 -2.35948,-1.10109 -5.842505,-2.02241 -5.797563,-6.11216 0.04494,-2.94373 2.292063,-4.78637 2.22465,-1.84264 5.95486,-1.84264 1.75276,-0.0225 3.61787,0.49437 0.83143,0.22471 1.3258,0.98873 0.47189,0.76402 0.22471,1.6404 v 0.0225 q -0.1573,0.85391 -0.98873,1.37074 -0.83144,0.49437 -1.88758,0.20224 -1.07862,-0.29212 -2.08982,-0.33706 -2.40442,-0.045 -2.40442,1.59545 0,0.67414 0.6966,1.21345 0.69661,0.51683 2.58419,1.1685 5.41556,1.91005 5.43803,6.20205 0.0449,2.94372 -2.1797,4.78636 -2.22465,1.82017 -6.53912,1.82017 -2.26959,0 -4.51671,-0.60673 -0.78649,-0.20224 -1.303331,-1.07861 -0.494366,-0.80897 -0.247183,-1.6404 z"
         style="font-style:normal;font-variant:normal;font-weight:normal;font-stretch:normal;font-size:46.02100372px;line-height:1.25;font-family:Dyuthi;-inkscape-font-specification:Dyuthi;letter-spacing:0px;word-spacing:0px;fill:#ffffff;fill-opacity:1;stroke:none;stroke-width:1.15052509"
         id="path930"
         inkscape:connector-curvature="0" />
    </g>
  </g>
</svg>
